<svg id="Слой_1" data-name="Слой 1" xmlns="http://www.w3.org/2000/svg" xmlns:xlink="http://www.w3.org/1999/xlink" viewBox="0 0 205.51 56.69"><defs><style>.cls-1{fill:#FFFFFF;}.cls-2{fill:#FFFFFF;clip-path:url(#clip-path);}</style><clipPath id="clip-path" transform="translate(0 0)"><rect class="cls-1" width="205.51" height="56.69"/></clipPath></defs><title>logo</title><polygon class="cls-1" points="173.62 14.17 173.62 21.26 192.85 21.26 170.08 56.69 178.58 56.69 205.51 14.17 205.51 14.17 173.62 14.17"/><g class="cls-2"><path d="M60.24,14.17a14.17,14.17,0,0,0,0,28.35,9.87,9.87,0,0,0,7.09-2.9v2.9a7.08,7.08,0,0,1-13.84,2.13H46.24a14.16,14.16,0,0,0,28.16-2.13V28.35A14.17,14.17,0,0,0,60.24,14.17m0,21.26a7.09,7.09,0,1,1,7.09-7.09,7.09,7.09,0,0,1-7.09,7.09" transform="translate(0 0)"/><path d="M36.5,0A4.61,4.61,0,1,0,41.1,4.61,4.61,4.61,0,0,0,36.5,0" transform="translate(0 0)"/><rect x="32.95" y="14.17" width="7.09" height="28.35"/><path d="M14.17,14.17a10.18,10.18,0,0,0-7.09,2.9V3.54H0v24.8A14.17,14.17,0,1,0,14.17,14.17m0,21.26a7.09,7.09,0,1,1,7.09-7.09,7.09,7.09,0,0,1-7.09,7.09" transform="translate(0 0)"/><path d="M124,14.17a14.17,14.17,0,1,0,0,28.35,10.07,10.07,0,0,0,7.09-2.9v2.9h7.09V28.35A14.17,14.17,0,0,0,124,14.17m0,21.26a7.09,7.09,0,1,1,7.09-7.09A7.09,7.09,0,0,1,124,35.43" transform="translate(0 0)"/><rect x="145.28" y="3.54" width="7.09" height="38.98"/><rect x="159.45" y="3.54" width="7.09" height="38.98"/><path d="M92.13,14.17A10.18,10.18,0,0,0,85,17.08V3.54H78v24.8A14.17,14.17,0,1,0,92.13,14.17m0,21.26a7.09,7.09,0,1,1,7.09-7.09,7.09,7.09,0,0,1-7.09,7.09" transform="translate(0 0)"/></g></svg>