<svg id="Слой_1" data-name="Слой 1" xmlns="http://www.w3.org/2000/svg" viewBox="0 0 90 60"><defs><style>.cls-1{fill:#c0c;}.cls-2{fill:none;stroke:#c0c;stroke-linecap:round;stroke-linejoin:round;stroke-width:2px;}</style></defs><title>main-how-7</title><path class="cls-1" d="M87,3V47H84.16a13,13,0,0,0-25.3,0H29.16a13,13,0,0,0-25.23-.29A3.72,3.72,0,0,1,3,44.27V31.56c0-3,2-6.25,5-6.25H22.33l.84-1.63L33.76,3H87m3-3H31.92L20.5,22.31H8c-4.63,0-8,4.62-8,9.25V44.27C0,47,1.78,50,4.47,50h2a10,10,0,0,1,20,0h35a10,10,0,1,1,20,0H90V0Z"/><path class="cls-1" d="M16.51,45a6,6,0,1,1-6,6,6,6,0,0,1,6-6m0-3a9,9,0,1,0,9,9,9,9,0,0,0-9-9Z"/><path class="cls-1" d="M71.51,45a6,6,0,1,1-6,6,6,6,0,0,1,6-6m0-3a9,9,0,1,0,9,9,9,9,0,0,0-9-9Z"/><polyline class="cls-2" points="46.51 5.83 46.51 24 26.3 24"/><line class="cls-2" x1="55" y1="8.75" x2="80" y2="8.75"/><line class="cls-2" x1="55" y1="16.25" x2="75" y2="16.25"/><line class="cls-2" x1="55" y1="23.75" x2="70" y2="23.75"/></svg>