<svg id="Слой_1" data-name="Слой 1" xmlns="http://www.w3.org/2000/svg" viewBox="0 0 92 92.5"><defs><style>.cls-1,.cls-2{fill:none;stroke:#c0c;stroke-linecap:round;stroke-linejoin:round;}.cls-1{stroke-width:2px;}.cls-2{stroke-width:3px;}</style></defs><title>main-how-1</title><line class="cls-1" x1="16.26" y1="1" x2="22.26" y2="7"/><line class="cls-1" x1="71.46" y1="7" x2="77.46" y2="1"/><line class="cls-1" x1="16.26" y1="59.5" x2="22.26" y2="53.5"/><line class="cls-1" x1="71.46" y1="53.5" x2="77.46" y2="59.5"/><line class="cls-1" x1="1" y1="30.25" x2="10" y2="30.25"/><line class="cls-1" x1="82" y1="30.25" x2="91" y2="30.25"/><polyline class="cls-2" points="56.15 60.85 56.15 80.65 34.55 80.65 34.55 60.85"/><path class="cls-2" d="M56.15,80.65c0,6.22-4.38,10.35-10.6,10.35s-11-4.13-11-10.35"/><path class="cls-2" d="M65.3,11.16A27.07,27.07,0,0,0,26.92,49.34c2.33,2.33,4,4.06,7.64,5.36v7.95h21.6V54.7a22,22,0,0,0,8.49-5.36C75.19,38.8,75.85,21.7,65.3,11.16Z"/><path class="cls-1" d="M33.48,43a18,18,0,0,1,0-25.45"/><line class="cls-1" x1="34.96" y1="61.75" x2="56.15" y2="72.08"/><line class="cls-1" x1="34.96" y1="70.75" x2="53.43" y2="79.75"/></svg>