<svg id="Слой_1" data-name="Слой 1" xmlns="http://www.w3.org/2000/svg" viewBox="0 0 90 89.99"><defs><style>.cls-1{fill:#c0c;}.cls-2{fill:none;stroke:#c0c;stroke-linejoin:round;stroke-width:2px;}</style></defs><title>main-how-4</title><path class="cls-1" d="M71.06,3h0a4.28,4.28,0,0,1,3.07,1.13L85.87,15.88a4.65,4.65,0,0,1,1.08,3.86A9.33,9.33,0,0,1,84.22,25L77,32.2,28.88,80.35,4,86,9.65,61.12,57.8,13,65,5.78A9,9,0,0,1,71.06,3m0-3a11.89,11.89,0,0,0-8.19,3.66l-7.19,7.19L6.92,59.61,0,90l30.39-6.91L79.15,34.32l7.2-7.19C90.47,23,91.23,17,88,13.76L76.25,2a7.19,7.19,0,0,0-5.19-2Z"/><line class="cls-2" x1="56.04" y1="11.14" x2="78.86" y2="33.96"/><line class="cls-2" x1="47.24" y1="19.95" x2="70.05" y2="42.76"/><path class="cls-2" d="M8.74,60c.71,10.59,10.73,21.18,21.46,21.18"/><line class="cls-2" x1="58.28" y1="31.72" x2="15.9" y2="73.55"/></svg>