<svg id="Слой_1" data-name="Слой 1" xmlns="http://www.w3.org/2000/svg" viewBox="0 0 90 90"><defs><style>.cls-1{fill:#c0c;}</style></defs><title>main-how-6</title><path class="cls-1" d="M60,3a3,3,0,0,1,3,3c0,.07,0,.14,0,.2l0,.2a3,3,0,0,0,2.23,3.3A21.31,21.31,0,0,1,70.77,12a3,3,0,0,0,3.91-.75,4.61,4.61,0,0,0,.33-.49A3,3,0,0,1,79.25,15a4.51,4.51,0,0,0-.53.36,3,3,0,0,0-.72,3.9,20.77,20.77,0,0,1,2.32,5.58,3,3,0,0,0,2.91,2.26l.39,0,.12,0L84,27a3,3,0,0,1,0,6l-.21,0-.2,0-.4,0a3,3,0,0,0-2.91,2.26A20.88,20.88,0,0,1,78,40.77a3,3,0,0,0,.72,3.9,4.48,4.48,0,0,0,.51.35A3,3,0,0,1,75,49.24a4.6,4.6,0,0,0-.31-.48A3,3,0,0,0,70.77,48a20.88,20.88,0,0,1-5.58,2.33,3,3,0,0,0-2.24,3.3l0,.21L63,54a3,3,0,0,1-6,0c0-.07,0-.13,0-.2l0-.22a3,3,0,0,0-2.24-3.29A20.91,20.91,0,0,1,49.24,48a3,3,0,0,0-3.88.7,4.42,4.42,0,0,0-.37.54A3,3,0,0,1,40.76,45a4.5,4.5,0,0,0,.5-.33A3,3,0,0,0,42,40.76a20.67,20.67,0,0,1-2.32-5.58,3,3,0,0,0-2.91-2.27l-.39,0-.21,0L36,33a3,3,0,0,1,0-6l.26,0,.13,0,.39,0a3,3,0,0,0,2.91-2.27A20.56,20.56,0,0,1,42,19.24a3,3,0,0,0-.73-3.92,4.54,4.54,0,0,0-.51-.34A3,3,0,0,1,45,10.76a4.48,4.48,0,0,0,.37.54,3,3,0,0,0,3.88.7,21.23,21.23,0,0,1,5.59-2.33,3,3,0,0,0,2.23-3.3l0-.2C57,6.1,57,6,57,6a3,3,0,0,1,3-3m15.12,7.57h0M40.94,44.82h0M60,0a6,6,0,0,0-6,6,5.8,5.8,0,0,0,.08.77A24.21,24.21,0,0,0,47.7,9.42a6.54,6.54,0,0,0-.42-.63,6,6,0,0,0-8.49,8.48,5.47,5.47,0,0,0,.64.42,23.52,23.52,0,0,0-2.66,6.38A5.91,5.91,0,0,0,36,24a6,6,0,1,0,0,12,5.88,5.88,0,0,0,.77-.08,23.64,23.64,0,0,0,2.65,6.39,4.9,4.9,0,0,0-.64.42,6,6,0,0,0,8.49,8.48,5.82,5.82,0,0,0,.42-.63,23.89,23.89,0,0,0,6.38,2.66A5.86,5.86,0,0,0,54,54a6,6,0,0,0,12,0,5.83,5.83,0,0,0-.08-.77,23.85,23.85,0,0,0,6.39-2.66,4.79,4.79,0,0,0,.42.64,6,6,0,1,0,8.49-8.48,5.37,5.37,0,0,0-.63-.42,23.85,23.85,0,0,0,2.65-6.39A5.83,5.83,0,0,0,84,36a6,6,0,0,0,0-12,5.86,5.86,0,0,0-.77.07,23.73,23.73,0,0,0-2.66-6.38,6,6,0,0,0,.64-.42,6,6,0,1,0-8.49-8.48,5.51,5.51,0,0,0-.42.63,24.28,24.28,0,0,0-6.39-2.66A5.78,5.78,0,0,0,66,6a6,6,0,0,0-6-6Z"/><path class="cls-1" d="M60,22a8,8,0,1,1-8,8,8,8,0,0,1,8-8m0-2A10,10,0,1,0,70,30,10,10,0,0,0,60,20Z"/><path class="cls-1" d="M27.57,48a1.64,1.64,0,0,1,1.6,2l0,.08-.08.18a3,3,0,0,0,1.25,3.77,15.41,15.41,0,0,1,3.51,2.78,3,3,0,0,0,4,.35c.12-.09.23-.18.32-.27a1.59,1.59,0,0,1,.59-.11,1.65,1.65,0,0,1,1.58,2.1,1.62,1.62,0,0,1-.58.86,4.07,4.07,0,0,0-.44.15,3,3,0,0,0-1.76,3.56A15.25,15.25,0,0,1,38,67.92,3,3,0,0,0,40.64,71h.06l.15,0a1.64,1.64,0,0,1,.94.77A1.62,1.62,0,0,1,41.93,73a1.64,1.64,0,0,1-2,1.15l-.06,0-.3-.12a3,3,0,0,0-3.69,1.29,15.37,15.37,0,0,1-2.78,3.5,3,3,0,0,0-.39,3.93,4,4,0,0,0,.3.37,1.64,1.64,0,0,1-1.52,2.24,1.65,1.65,0,0,1-1.31-.65c0-.1-.06-.19-.09-.29a3,3,0,0,0-3.62-1.9,15.24,15.24,0,0,1-4,.53H22a3,3,0,0,0-3,2.49l0,.24v.09A1.66,1.66,0,0,1,17.42,87a1.63,1.63,0,0,1-.43-.06,1.65,1.65,0,0,1-1.15-2l.07-.15,0,0a3,3,0,0,0-1.24-3.82,15.44,15.44,0,0,1-3.51-2.78,3,3,0,0,0-3.9-.4,3.94,3.94,0,0,0-.4.32,1.6,1.6,0,0,1-.58.11,1.65,1.65,0,0,1-1.44-.84,1.65,1.65,0,0,1,.44-2.11l.4-.13a3,3,0,0,0,1.8-3.57A15.36,15.36,0,0,1,7,67.08,3,3,0,0,0,4.41,64L4.2,64H4.13A1.64,1.64,0,0,1,5,60.83l.16.07a3,3,0,0,0,3.85-1.21,15.64,15.64,0,0,1,2.79-3.52,3,3,0,0,0,.39-3.92,4,4,0,0,0-.31-.38,1.63,1.63,0,0,1,.74-2,1.6,1.6,0,0,1,.79-.21,1.63,1.63,0,0,1,1.31.66,4.06,4.06,0,0,0,.16.46,3,3,0,0,0,3.54,1.71,15.28,15.28,0,0,1,4-.53H23a3,3,0,0,0,3-2.59v-.08s0-.1,0-.15A1.65,1.65,0,0,1,27.57,48M26,49.12h0m12.31,7.62h0M5.44,75.12h0M27.57,45A4.43,4.43,0,0,0,23,49h-.54a18.25,18.25,0,0,0-4.77.63,4.57,4.57,0,0,0-.19-.56,4.64,4.64,0,0,0-8.11,4.52,5.54,5.54,0,0,0,.38.44,18.6,18.6,0,0,0-3.33,4.19A4.42,4.42,0,0,0,5.91,58a4.64,4.64,0,0,0-2.54,8.93A5.08,5.08,0,0,0,4,67a18.3,18.3,0,0,0,.62,5.31,4.79,4.79,0,0,0-.56.18,4.64,4.64,0,0,0,4.52,8.11A5.48,5.48,0,0,0,9,80.21a18.39,18.39,0,0,0,4.19,3.32,4.41,4.41,0,0,0-.22.56,4.64,4.64,0,1,0,8.93,2.53c.05-.2.07-.4.11-.59h.54a18.21,18.21,0,0,0,4.77-.64,3.57,3.57,0,0,0,.18.56,4.64,4.64,0,1,0,8.11-4.52,4.59,4.59,0,0,0-.38-.45,18.35,18.35,0,0,0,3.32-4.19c.19.07.37.17.56.22a4.64,4.64,0,0,0,2.54-8.93A4.49,4.49,0,0,0,41,68a18.21,18.21,0,0,0-.62-5.31,4.84,4.84,0,0,0,.56-.18,4.64,4.64,0,1,0-4.52-8.11,5,5,0,0,0-.45.39,18.39,18.39,0,0,0-4.19-3.33,4.84,4.84,0,0,0,.22-.55A4.65,4.65,0,0,0,27.57,45Z"/><path class="cls-1" d="M22.5,62a5.5,5.5,0,1,1-5.29,4,5.5,5.5,0,0,1,5.29-4m0-2a7.51,7.51,0,1,0,2,.29,7.5,7.5,0,0,0-2-.29Z"/></svg>