<svg id="Слой_1" data-name="Слой 1" xmlns="http://www.w3.org/2000/svg" viewBox="0 0 90 45"><defs><style>.cls-1{fill:#c0c;}.cls-2{fill:none;stroke:#c0c;stroke-linecap:round;stroke-linejoin:round;stroke-width:2px;}</style></defs><title>main-how-2</title><path class="cls-1" d="M45,2A56.45,56.45,0,0,1,60.58,4.18a20.5,20.5,0,1,1-31.16,0A56.45,56.45,0,0,1,45,2m0-2A58.4,58.4,0,0,0,28.3,2.42a22.5,22.5,0,1,0,33.39,0A58.4,58.4,0,0,0,45,0Z"/><path class="cls-1" d="M45,2.83c16.81,0,32.17,7.32,41.51,19.67C77.17,34.85,61.81,42.17,45,42.17S12.83,34.85,3.49,22.5C12.83,10.15,28.19,2.83,45,2.83M45,0C25.95,0,9.3,9,0,22.5,9.3,36,25.95,45,45,45s35.7-9,45-22.5C80.7,9,64.05,0,45,0Z"/><path class="cls-1" d="M45,10a8,8,0,1,1-8,8,8,8,0,0,1,8-8m0-2A10,10,0,1,0,55,18,10,10,0,0,0,45,8Z"/><path class="cls-2" d="M43.21,23a6.48,6.48,0,0,1-2.5-5,6.48,6.48,0,0,1,2.5-5"/></svg>