<svg id="Слой_1" data-name="Слой 1" xmlns="http://www.w3.org/2000/svg" viewBox="0 0 91.5 91.5"><defs><style>.cls-1{fill:#c0c;}.cls-2{fill:none;stroke:#c0c;stroke-linecap:round;stroke-linejoin:round;stroke-width:3px;}</style></defs><title>main-how-8</title><path class="cls-1" d="M42.79,6l15,11.16a3,3,0,0,0,2.74.43l17.75-6-6,17.54a3,3,0,0,0,.44,2.78L83.89,46.74,65.17,46.5h0a3,3,0,0,0-2.44,1.26L51.89,62.93l-5.54-17.7a3,3,0,0,0-2-2L26.5,37.73,41.72,27.06A3,3,0,0,0,43,24.56L42.79,6M39.71,0ZM40,24.59,19.75,38.79l23.71,7.3,7.37,23.49L65.17,49.5,90,49.82,75.12,30.1l8-23.29-23.51,7.9L39.71,0Z" transform="translate(1.5 0)"/><line class="cls-2" x1="1.5" y1="90" x2="36.12" y2="55.71"/></svg>