<svg id="Слой_1" data-name="Слой 1" xmlns="http://www.w3.org/2000/svg" viewBox="0 0 91.5 91.5"><defs><style>.cls-1{fill:#c0c;}.cls-2{fill:none;stroke:#c0c;stroke-linecap:round;stroke-linejoin:round;stroke-width:3px;}</style></defs><title>main-how-8</title><path class="cls-1" d="M47.21,6,47,24.56a3,3,0,0,0,1.28,2.5L63.5,37.73l-17.85,5.5a3,3,0,0,0-2,2L38.11,62.93,27.27,47.76a3,3,0,0,0-2.44-1.26h0l-18.72.24L17.24,31.91a3,3,0,0,0,.44-2.78l-6-17.54,17.75,6a3,3,0,0,0,2.74-.43L47.21,6m3.08-6h0Zm0,0L30.39,14.71,6.88,6.81l8,23.29L0,49.82l24.83-.32L39.17,69.58l7.37-23.49,23.71-7.3L50,24.59,50.29,0Z"/><line class="cls-2" x1="55.38" y1="55.71" x2="90" y2="90"/></svg>