<svg id="Слой_1" data-name="Слой 1" xmlns="http://www.w3.org/2000/svg" viewBox="0 0 90 90"><defs><style>.cls-1{fill:#c0c;}</style></defs><title>main-how-5</title><path class="cls-1" d="M51.13,24.52H35V44.2H30.79v4H35V54H30.79v3.12H35v7.38h5V57.16H55V54H40V48.22h11.1c7.92,0,12.54-5.4,12.54-11.82s-4.5-11.88-12.54-11.88ZM40,44.2V29h10.5c4.74,0,8,3.12,8,7.62s-3.24,7.62-8,7.62Z"/><path class="cls-1" d="M45,11.25h-.06a1,1,0,0,0,0,2h.21a1,1,0,0,0,0-2H45Zm-5.84.52-.18,0h-.06a1,1,0,0,0,.18,2l.18,0h.05a1,1,0,0,0-.18-2ZM33.5,13.33a1,1,0,0,0-.35.06h-.06a1,1,0,0,0,.71,1.87l0,0a1,1,0,0,0-.35-1.94Zm-5.29,2.55a1,1,0,0,0-.51.14l0,0h0a1,1,0,0,0,1,1.71l0,0a1,1,0,0,0-.51-1.86Zm-4.75,3.45a1,1,0,0,0-.66.25h0l0,0a1,1,0,0,0,1.32,1.5l0,0a1,1,0,0,0-.66-1.75Zm-4.06,4.24a1,1,0,0,0-.78.37v0l0,0a1,1,0,0,0,1.56,1.25l0,0a1,1,0,0,0-.78-1.62Zm-3.24,4.89a1,1,0,0,0-.88.53h0v0A1,1,0,0,0,17,30l0,0a1,1,0,0,0-.88-1.48Zm-2.31,5.39a1,1,0,0,0-.95.69h0v0a1,1,0,1,0,1.9.62l0,0a1,1,0,0,0-1-1.31Zm-1.31,5.72a1,1,0,0,0-1,.86v.06a1,1,0,0,0,.86,1.12h.13a1,1,0,0,0,1-.87V40.7a1,1,0,0,0-.86-1.13Zm-.26,5.87h0a1,1,0,0,0-1,1v.06a1,1,0,0,0,1,1h0a1,1,0,0,0,1-1v-.05a1,1,0,0,0-1-1Zm.77,5.82-.22,0a1,1,0,0,0-.76,1.19v.06a1,1,0,0,0,1,.78l.22,0a1,1,0,0,0,.75-1.2V52a1,1,0,0,0-1-.78Zm1.8,5.58a1,1,0,0,0-.92,1.39l0,.05a1,1,0,1,0,1.84-.79l0,0a1,1,0,0,0-.92-.61ZM17.63,62a1,1,0,0,0-.84,1.55l0,0v0a1,1,0,0,0,1.67-1.1l0,0a1,1,0,0,0-.84-.45Zm3.66,4.59a1,1,0,0,0-.72,1.69h0l0,0,0,0A1,1,0,0,0,22,66.94l0,0a1,1,0,0,0-.72-.31Zm4.41,3.87a1,1,0,0,0-.59,1.81h0l0,0h0a1,1,0,1,0,1.18-1.62l0,0a1,1,0,0,0-.59-.19Zm5,3a1,1,0,0,0-.44,1.9h.05a1,1,0,1,0,.87-1.8l0,0a1,1,0,0,0-.44-.1Zm5.49,2.07a1,1,0,0,0-.27,2H36a1,1,0,1,0,.53-1.93h0a1,1,0,0,0-.27,0ZM42,76.61a1,1,0,0,0-.09,2H42a1,1,0,0,0,.09-2H42Zm5.93,0h-.14a1,1,0,0,0,.08,2H48a1,1,0,0,0-.09-2Zm5.77-1a1,1,0,0,0-.26,0h0a1,1,0,0,0,.52,1.93H54a1,1,0,0,0-.27-2Zm5.49-2.06a1,1,0,0,0-.43.1l0,0a1,1,0,1,0,.86,1.8l0,0h0a1,1,0,0,0-.44-1.9Zm5-3a1,1,0,0,0-.59.19l0,0a1,1,0,0,0,1.17,1.62h0l0,0a1,1,0,0,0-.59-1.81Zm4.42-3.86a1,1,0,0,0-.72.31l0,0a1,1,0,0,0,1.44,1.39h0a1,1,0,0,0-.72-1.69Zm3.67-4.58a1,1,0,0,0-.83.45l0,0a1,1,0,1,0,1.66,1.11h0l0,0a1,1,0,0,0-.83-1.55Zm2.79-5.16a1,1,0,0,0-.92.61l0,0a1,1,0,1,0,1.84.79v-.05a1,1,0,0,0-.92-1.39Zm1.82-5.58a1,1,0,0,0-1,.78v.05a1,1,0,0,0,.75,1.2l.23,0a1,1,0,0,0,1-.77h0v0h0a1,1,0,0,0-.75-1.2l-.22,0Zm.79-5.81a1,1,0,0,0-1,1v.05a1,1,0,0,0,1,1h0a1,1,0,0,0,1-1h0v0a1,1,0,0,0-1-1Zm-.25-5.87h-.13a1,1,0,0,0-.86,1.12v.05a1,1,0,0,0,1,.87h.13a1,1,0,0,0,.86-1.12v0h0a1,1,0,0,0-1-.87Zm-1.29-5.72a1,1,0,0,0-1,1.31l0,0a1,1,0,0,0,1.9-.61h0l0,0a1,1,0,0,0-1-.69Zm-2.3-5.4A1,1,0,0,0,73,30l0,0a1,1,0,0,0,1.76-.94l0,0a1,1,0,0,0-.88-.53Zm-3.23-4.9a1,1,0,0,0-.78,1.62l0,0a1,1,0,0,0,1.57-1.24h0l0,0h0a1,1,0,0,0-.78-.38Zm-4-4.25a1,1,0,0,0-.66,1.75l0,0a1,1,0,0,0,1.33-1.5h0l0,0a1,1,0,0,0-.66-.25Zm-4.74-3.47a1,1,0,0,0-.52,1.86l0,0a1,1,0,1,0,1-1.71h0l0,0a1,1,0,0,0-.51-.14Zm-5.28-2.56a1,1,0,0,0-.35,1.94l0,0A1,1,0,0,0,57,13.45l-.06,0a1,1,0,0,0-.35-.06Zm-5.65-1.57a1,1,0,0,0-.18,2h.05l.18,0a1,1,0,0,0,.18-2h-.06l-.18,0Z"/><path class="cls-1" d="M45,3A42,42,0,1,1,3,45,42,42,0,0,1,45,3m0-3A45,45,0,1,0,90,45,45,45,0,0,0,45,0Z"/></svg>