<svg id="Слой_1" data-name="Слой 1" xmlns="http://www.w3.org/2000/svg" xmlns:xlink="http://www.w3.org/1999/xlink" viewBox="0 0 75 91.99"><defs><style>.cls-1,.cls-5{fill:none;}.cls-2{opacity:0.25;}.cls-3{fill:#c0c;}.cls-4{clip-path:url(#clip-path);}.cls-5{stroke:#c0c;stroke-linecap:round;stroke-linejoin:round;stroke-width:2px;}</style><clipPath id="clip-path"><rect class="cls-1" x="-7.5" y="1" width="45" height="90"/></clipPath></defs><title>main-how-3</title><g class="cls-2"><path class="cls-3" d="M42.61,28.94H29.21v16.4H25.66v3.35h3.55v4.85H25.66v2.6h3.55v6.15h4.15V56.13h12.5v-2.6H33.36V48.69h9.25c6.6,0,10.45-4.5,10.45-9.85s-3.75-9.9-10.45-9.9Zm-9.25,16.4V32.64h8.75c3.95,0,6.65,2.6,6.65,6.35s-2.7,6.35-6.65,6.35Z"/><path class="cls-3" d="M37.5,17.87h-.06a1,1,0,0,0,0,2h.05a1,1,0,0,0,.51-.14,1,1,0,0,0,.5.16h.09a1,1,0,0,0,0-2h-.1A1,1,0,0,0,38,18a1,1,0,0,0-.54-.16Zm-5.79.62-.21,0h-.06a1,1,0,0,0,.21,2l.21,0h0a1,1,0,0,0-.21-2Zm-5.53,1.85a1,1,0,0,0-.41.09l0,0h0a1,1,0,0,0,.84,1.82l0,0a1,1,0,0,0-.42-1.91Zm-5,3a1,1,0,0,0-.6.2l0,0h0a1,1,0,0,0,1.21,1.59l0,0a1,1,0,0,0-.6-1.8Zm-4.25,4a1,1,0,0,0-.76.35l0,0h0A1,1,0,0,0,17.65,29l0,0a1,1,0,0,0-.76-1.65Zm-3.31,4.8a1,1,0,0,0-.88.52v0h0a1,1,0,0,0,1.76.95l0,0a1,1,0,0,0-.88-1.48Zm-2.2,5.4a1,1,0,0,0-1,.72l0,.06a1,1,0,0,0,1.92.55v0a1,1,0,0,0-1-1.28Zm-1,5.74a1,1,0,0,0-1,.94v0h0a1,1,0,0,0,.94,1.06h.06a1,1,0,0,0,1-.94v-.05a1,1,0,0,0-.94-1.06Zm.25,5.83h-.15a1,1,0,0,0-.84,1.13v0h0v0h0a1,1,0,0,0,1,.85h.15A1,1,0,0,0,11.68,50v-.05a1,1,0,0,0-1-.85Zm1.49,5.63a1,1,0,0,0-.93,1.36l0,.06a1,1,0,0,0,1.86-.72l0,0a1,1,0,0,0-.93-.64Zm2.66,5.18A1,1,0,0,0,14,61.45l0,0h0a1,1,0,1,0,1.67-1.1l0,0a1,1,0,0,0-.84-.45Zm3.71,4.5a1,1,0,0,0-.7,1.71h0l0,0a1,1,0,0,0,1.39-1.44l0,0a1,1,0,0,0-.7-.28ZM23.13,68a1,1,0,0,0-.53,1.85h0l0,0a1,1,0,0,0,1.06-1.7l0,0a1,1,0,0,0-.53-.15Zm5.24,2.54A1,1,0,0,0,28,72.49h.06a1,1,0,0,0,.67-1.89l0,0a1,1,0,0,0-.34-.06ZM34,71.9a1,1,0,0,0-.13,2h.19a1,1,0,0,0,.12-2H34Zm5.88.11h-.14a1,1,0,0,0,.08,2H40a1,1,0,0,0-.09-2Zm5.72-1.13a1,1,0,0,0-.3,0l0,0a1,1,0,0,0,.59,1.91h.06a1,1,0,0,0-.3-2ZM51,68.55a1,1,0,0,0-.5.13l0,0a1,1,0,0,0,1,1.74l.05,0a1,1,0,0,0-.5-1.87Zm4.72-3.43a1,1,0,0,0-.67.26l0,0a1,1,0,1,0,1.34,1.49h0l0,0a1,1,0,0,0-.67-1.74Zm3.88-4.35a1,1,0,0,0-.81.42l0,0a1,1,0,0,0,1.62,1.17l0-.05a1,1,0,0,0-.81-1.58Zm2.86-5.08a1,1,0,0,0-.92.61l0,0a1,1,0,1,0,1.84.79h0v0h0a1,1,0,0,0-.92-1.39Zm1.7-5.57a1,1,0,0,0-1,.81V51a1,1,0,0,0,.79,1.17l.19,0a1,1,0,0,0,1-.81v-.05h0a1,1,0,0,0-.79-1.17l-.19,0Zm.48-5.81h0a1,1,0,0,0-1,1v.05a1,1,0,0,0,1,1h0a1,1,0,0,0,1-1h0v0a1,1,0,0,0-1-1Zm-.77-5.78-.24,0a1,1,0,0,0-.73,1.21v0a1,1,0,0,0,1,.76l.24,0a1,1,0,0,0,.74-1.21h0v0a1,1,0,0,0-1-.76Zm-2-5.48A1,1,0,0,0,61,34.5l0,0a1,1,0,0,0,1.8-.88v0h0v0a1,1,0,0,0-.9-.56Zm-3.12-4.92A1,1,0,0,0,58,29.75l0,0a1,1,0,1,0,1.57-1.24l0,0a1,1,0,0,0-.78-.38ZM54.65,24A1,1,0,0,0,54,25.75l0,0a1,1,0,0,0,1.27-1.55l0,0h0a1,1,0,0,0-.63-.22ZM49.76,20.8a1,1,0,0,0-.45,1.89l0,0a1,1,0,1,0,.91-1.78h0a1,1,0,0,0-.45-.11Zm-5.45-2.06a1,1,0,0,0-.25,2h0a1,1,0,0,0,.51-1.93h-.06a1,1,0,0,0-.25,0Z"/><path class="cls-3" d="M37.5,11.5A34.5,34.5,0,1,1,3,46,34.54,34.54,0,0,1,37.5,11.5m0-3A37.5,37.5,0,1,0,75,46,37.5,37.5,0,0,0,37.5,8.5Z"/></g><g class="cls-4"><path class="cls-3" d="M42.61,28.93H29.21v16.4H25.66v3.35h3.55v4.85H25.66v2.6h3.55v6.15h4.15V56.13h12.5v-2.6H33.36V48.68h9.25c6.6,0,10.45-4.5,10.45-9.85s-3.75-9.9-10.45-9.9Zm-9.25,16.4V32.63h8.75c3.95,0,6.65,2.6,6.65,6.35s-2.7,6.35-6.65,6.35Z"/><path class="cls-3" d="M37.5,17.87h-.06a1,1,0,0,0,0,2h.05a1,1,0,0,0,.51-.14,1,1,0,0,0,.5.16h.09a1,1,0,0,0,0-2h-.1A1,1,0,0,0,38,18a1,1,0,0,0-.54-.16Zm-5.79.62-.21,0h-.06a1,1,0,0,0,.21,2l.21,0h0a1,1,0,0,0-.21-2Zm-5.53,1.85a1,1,0,0,0-.41.09l0,0h0a1,1,0,0,0,.84,1.82l0,0a1,1,0,0,0-.42-1.91Zm-5,3a1,1,0,0,0-.6.2l0,0h0a1,1,0,0,0,1.21,1.59l0,0a1,1,0,0,0-.6-1.8Zm-4.25,4a1,1,0,0,0-.76.35l0,0h0A1,1,0,0,0,17.65,29l0,0a1,1,0,0,0-.76-1.65Zm-3.31,4.8a1,1,0,0,0-.88.52v0h0a1,1,0,0,0,1.76.95l0,0a1,1,0,0,0-.88-1.48Zm-2.2,5.4a1,1,0,0,0-1,.72l0,.06a1,1,0,0,0,1.92.55v0a1,1,0,0,0-1-1.28Zm-1,5.74a1,1,0,0,0-1,.94v0h0a1,1,0,0,0,.94,1.06h.06a1,1,0,0,0,1-.94v-.05a1,1,0,0,0-.94-1.06Zm.25,5.83h-.15a1,1,0,0,0-.84,1.13v0h0v0h0a1,1,0,0,0,1,.85h.15A1,1,0,0,0,11.68,50v-.05a1,1,0,0,0-1-.85Zm1.49,5.63a1,1,0,0,0-.93,1.36l0,.06a1,1,0,0,0,1.86-.72l0,0a1,1,0,0,0-.93-.64Zm2.66,5.18A1,1,0,0,0,14,61.45l0,0h0a1,1,0,1,0,1.67-1.1l0,0a1,1,0,0,0-.84-.45Zm3.71,4.5a1,1,0,0,0-.7,1.71h0l0,0a1,1,0,0,0,1.39-1.44l0,0a1,1,0,0,0-.7-.28ZM23.13,68a1,1,0,0,0-.53,1.85h0l0,0a1,1,0,0,0,1.06-1.7l0,0a1,1,0,0,0-.53-.15Zm5.24,2.54A1,1,0,0,0,28,72.49h.06a1,1,0,0,0,.67-1.89l0,0a1,1,0,0,0-.34-.06ZM34,71.9a1,1,0,0,0-.13,2h.19a1,1,0,0,0,.12-2H34Zm5.88.11h-.14a1,1,0,0,0,.08,2H40a1,1,0,0,0-.09-2Zm5.72-1.13a1,1,0,0,0-.3,0l0,0a1,1,0,0,0,.59,1.91h.06a1,1,0,0,0-.3-2ZM51,68.54a1,1,0,0,0-.5.13l0,0a1,1,0,0,0,1,1.74l.05,0a1,1,0,0,0-.5-1.87Zm4.72-3.43a1,1,0,0,0-.67.26l0,0a1,1,0,1,0,1.34,1.49h0l0,0a1,1,0,0,0-.67-1.74Zm3.88-4.35a1,1,0,0,0-.81.42l0,0a1,1,0,0,0,1.62,1.17l0-.05a1,1,0,0,0-.81-1.58Zm2.86-5.08a1,1,0,0,0-.92.61l0,0a1,1,0,1,0,1.84.79h0v0h0a1,1,0,0,0-.92-1.39Zm1.7-5.57a1,1,0,0,0-1,.81V51a1,1,0,0,0,.79,1.17l.19,0a1,1,0,0,0,1-.81v-.05h0a1,1,0,0,0-.79-1.17l-.19,0Zm.48-5.81h0a1,1,0,0,0-1,1v.05a1,1,0,0,0,1,1h0a1,1,0,0,0,1-1h0v0a1,1,0,0,0-1-1Zm-.77-5.78-.24,0a1,1,0,0,0-.73,1.21v0a1,1,0,0,0,1,.76l.24,0a1,1,0,0,0,.74-1.21h0v0a1,1,0,0,0-1-.76Zm-2-5.48a1,1,0,0,0-.9,1.44l0,0a1,1,0,0,0,1.8-.88v0h0v0a1,1,0,0,0-.9-.56Zm-3.12-4.92A1,1,0,0,0,58,29.75l0,0a1,1,0,1,0,1.57-1.24l0,0a1,1,0,0,0-.78-.38ZM54.65,24A1,1,0,0,0,54,25.75l0,0a1,1,0,0,0,1.27-1.55l0,0h0a1,1,0,0,0-.63-.22ZM49.76,20.8a1,1,0,0,0-.45,1.89l0,0a1,1,0,1,0,.91-1.78h0a1,1,0,0,0-.45-.11Zm-5.45-2.06a1,1,0,0,0-.25,2h0a1,1,0,0,0,.51-1.93h-.06a1,1,0,0,0-.25,0Z"/><path class="cls-3" d="M37.5,11.5A34.5,34.5,0,1,1,3,46,34.54,34.54,0,0,1,37.5,11.5m0-3A37.5,37.5,0,1,0,75,46,37.5,37.5,0,0,0,37.5,8.5Z"/></g><line class="cls-5" x1="37.5" y1="1" x2="37.5" y2="90.99"/></svg>