<svg id="Слой_1" data-name="Слой 1" xmlns="http://www.w3.org/2000/svg" viewBox="0 0 45 45"><defs><style>.cls-1{fill:#fff;}</style></defs><title>social-ig</title><path class="cls-1" d="M27.89,13.77H17.12a3.4,3.4,0,0,0-3.39,3.39V27.92a3.4,3.4,0,0,0,3.39,3.39H27.89a3.4,3.4,0,0,0,3.39-3.39V17.16A3.4,3.4,0,0,0,27.89,13.77Zm1,2h.39v3h-3v-3ZM20,20.74a3.08,3.08,0,1,1-.59,1.8A3.09,3.09,0,0,1,20,20.74Zm9.58,7.18a1.68,1.68,0,0,1-1.68,1.68H17.12a1.68,1.68,0,0,1-1.68-1.68V20.74h2.62a4.8,4.8,0,1,0,8.9,0h2.62Z"/><path class="cls-1" d="M22.5,2A20.5,20.5,0,1,1,2,22.5,20.52,20.52,0,0,1,22.5,2m0-2A22.5,22.5,0,1,0,45,22.5,22.5,22.5,0,0,0,22.5,0Z"/></svg>