<svg id="Слой_1" data-name="Слой 1" xmlns="http://www.w3.org/2000/svg" viewBox="0 0 45 45"><defs><style>.cls-1{fill:#fff;}</style></defs><title>social-tw</title><path class="cls-1" d="M35.59,21.82a8.66,8.66,0,0,1-2.42-.35V21.4l.42,0A3.28,3.28,0,0,0,36.29,20a4.49,4.49,0,0,1-3.28.07,6.69,6.69,0,0,0-.61-1.73c-2.09-4-5.36-3.59-5.36-3.59s2.41-.49,2.3-1.15S27,14,27,14s1.23-.69,1.06-1-2,.87-2,.87.3-.44.19-.57-1.58,1.15-2.7,3A15.52,15.52,0,0,0,22,19.92a9.37,9.37,0,0,0-1.88-1.65c-1.39-1-7.32-3.24-7.32-3.24a2.87,2.87,0,0,0,.61,2.11,4.2,4.2,0,0,0,1.69,1.34,7.11,7.11,0,0,0-.85.05c-.35,0-.76.15-.76.15a2.21,2.21,0,0,0,1,1.86,4.25,4.25,0,0,0,2,.95,4.76,4.76,0,0,0-1,.2,2.08,2.08,0,0,0-.8.58,3.67,3.67,0,0,0,1.1,1.23A3.42,3.42,0,0,0,18,24s-1.14.3-1.07,1.24c.11,1.37,2,1.09,2,1.09a7.21,7.21,0,0,1-5.34,2.27,7.21,7.21,0,0,1-4.95-1.87S16,36.77,28.29,29.57A9.93,9.93,0,0,0,33,22.93a3.49,3.49,0,0,0,.69.07,3.42,3.42,0,0,0,2.61-1.21C36.09,21.81,35.84,21.82,35.59,21.82Z"/><path class="cls-1" d="M22.5,2A20.5,20.5,0,1,1,2,22.5,20.52,20.52,0,0,1,22.5,2m0-2A22.5,22.5,0,1,0,45,22.5,22.5,22.5,0,0,0,22.5,0Z"/></svg>