<svg id="Слой_1" data-name="Слой 1" xmlns="http://www.w3.org/2000/svg" viewBox="0 0 45 45"><defs><style>.cls-1{fill:#fff;}</style></defs><title>social-vk</title><path class="cls-1" d="M34.12,28.31,34,28.14a13.32,13.32,0,0,0-2.55-3l0,0h0q-.86-.82-1.08-1.1A1,1,0,0,1,30.14,23a10.1,10.1,0,0,1,1.2-1.75l.87-1.14q2.31-3.08,2-3.93L34.14,16a.78.78,0,0,0-.41-.22,2.09,2.09,0,0,0-.86,0l-3.85,0a.5.5,0,0,0-.27,0l-.17,0-.07,0-.05,0a.58.58,0,0,0-.15.14.92.92,0,0,0-.13.23,21.86,21.86,0,0,1-1.43,3q-.5.83-.91,1.44a7,7,0,0,1-.69.9,4.81,4.81,0,0,1-.51.46c-.15.12-.27.17-.35.15l-.23-.05a.88.88,0,0,1-.3-.33,1.46,1.46,0,0,1-.15-.52q0-.31,0-.54c0-.15,0-.37,0-.64s0-.46,0-.56q0-.51,0-1.1t0-.94q0-.35,0-.74a3.08,3.08,0,0,0,0-.61,2.06,2.06,0,0,0-.14-.43.72.72,0,0,0-.27-.32,1.54,1.54,0,0,0-.45-.18,9,9,0,0,0-1.81-.17,8.78,8.78,0,0,0-3.2.32,1.79,1.79,0,0,0-.51.4q-.24.29-.07.32a1.64,1.64,0,0,1,1.14.57l.08.16a2.52,2.52,0,0,1,.19.61,6.17,6.17,0,0,1,.12,1,10.31,10.31,0,0,1,0,1.67q-.07.69-.13,1.08a2.17,2.17,0,0,1-.18.63,2.54,2.54,0,0,1-.16.29l-.07.07a1,1,0,0,1-.36.07.85.85,0,0,1-.45-.19,3.21,3.21,0,0,1-.55-.52,6.87,6.87,0,0,1-.65-.92q-.36-.59-.75-1.39l-.21-.39q-.2-.37-.55-1.09T14,16.39a.89.89,0,0,0-.32-.43l-.07,0a1,1,0,0,0-.21-.11,1.43,1.43,0,0,0-.31-.09l-3.66,0a.93.93,0,0,0-.76.25l-.05.08a.44.44,0,0,0,0,.21,1.06,1.06,0,0,0,.08.36q.8,1.88,1.75,3.64T12,23.11q.7,1.07,1.42,2t1,1.22l.37.4.33.32a7.85,7.85,0,0,0,.94.77,16.07,16.07,0,0,0,1.38.88,7.48,7.48,0,0,0,1.76.71,6.06,6.06,0,0,0,2,.22h1.54a1.06,1.06,0,0,0,.71-.29l.05-.07a.88.88,0,0,0,.1-.25,1.36,1.36,0,0,0,0-.37,4.44,4.44,0,0,1,.09-1,2.72,2.72,0,0,1,.23-.69,1.68,1.68,0,0,1,.29-.39,1.14,1.14,0,0,1,.23-.19l.11,0a.85.85,0,0,1,.76.21,4.48,4.48,0,0,1,.82.78q.38.46.92,1a6.38,6.38,0,0,0,.94.86l.27.16a3.23,3.23,0,0,0,.7.29,1.49,1.49,0,0,0,.75.07l3.42-.05a1.55,1.55,0,0,0,.79-.17.66.66,0,0,0,.33-.37,1,1,0,0,0,0-.46,1.74,1.74,0,0,0-.09-.35Zm0,0"/><path class="cls-1" d="M22.5,2A20.5,20.5,0,1,1,2,22.5,20.52,20.52,0,0,1,22.5,2m0-2A22.5,22.5,0,1,0,45,22.5,22.5,22.5,0,0,0,22.5,0Z"/></svg>